<svg width="1920" height="710" viewBox="0 0 1920 710" fill="none" xmlns="http://www.w3.org/2000/svg">
<rect width="1921" height="710" fill="black" fill-opacity="0" transform="translate(-1)"/>
<path opacity="0.2" fill-rule="evenodd" clip-rule="evenodd" d="M1919.72 651.117L-1 498.405L1919.36 498.405L1919.72 651.117Z" fill="url(#paint0_linear)"/>
<path fill-rule="evenodd" clip-rule="evenodd" d="M-0.107544 710L1920 516.271V491.944L0.0968148 491.944" fill="url(#paint1_linear)"/>
<path fill-rule="evenodd" clip-rule="evenodd" d="M1919.89 0H-0.219177V521.579H0.365662L0 635.208L1919.1 521.579H1919.89V521.532V0Z" fill="url(#paint2_linear)"/>
<mask id="mask0" mask-type="alpha" maskUnits="userSpaceOnUse" x="0" y="0" width="1920" height="636">
<path fill-rule="evenodd" clip-rule="evenodd" d="M1920 0H0V521.421H1920V0ZM1920 521.439L0.219177 635.08L0.584961 521.439H1920Z" fill="white"/>
</mask>
<g mask="url(#mask0)">
<rect width="1992.96" height="754.629" fill="black" fill-opacity="0" transform="translate(-31.2837 -4)"/>
<rect width="214.564" height="320.089" fill="black" fill-opacity="0" transform="translate(-31.2837 470.673) rotate(-29)"/>
<path d="M121.701 715.935L110.031 693.574L93.6104 695.988L47.1767 610.73L91.3607 547.654L119.691 530.638L122.008 476.955L159.647 437.646L163.519 440.514L127.363 478.264L125 532.911L95.05 550.889L53.4077 610.338L97.1261 690.604L113.605 688.179L127.172 712.902L121.701 715.935Z" fill="white"/>
<path d="M138.184 707.594L133.631 705.066L173.748 650.327L166.657 625.6L223.518 565.864L227.533 569.051L172.662 626.692L179.616 650.942L138.184 707.594Z" fill="white"/>
<path d="M177.372 652.244L176.501 646.861L225.401 643.043L233.556 617.011L274.061 610.89L275.365 616.231L238.195 621.853L229.958 648.151L177.372 652.244Z" fill="white"/>
<path fill-rule="evenodd" clip-rule="evenodd" d="M285.287 621.897C290.6 618.951 292.52 612.256 289.575 606.943C286.629 601.63 279.934 599.71 274.621 602.655C269.307 605.6 267.388 612.295 270.333 617.609C273.278 622.922 279.973 624.842 285.287 621.897Z" fill="#A7D8FE"/>
<path fill-rule="evenodd" clip-rule="evenodd" d="M233.268 576.919C239.548 573.438 241.816 565.526 238.336 559.247C234.855 552.967 226.942 550.698 220.663 554.179C214.383 557.66 212.115 565.572 215.595 571.852C219.076 578.131 226.989 580.4 233.268 576.919Z" fill="#A7D8FE"/>
<path d="M84.9899 559.704L87.9493 555.955L52.1392 532.291L56.941 508.911L28.5416 487.046L25.2782 490.579L51.337 510.649L46.4853 534.266L84.9899 559.704Z" fill="white"/>
<path fill-rule="evenodd" clip-rule="evenodd" d="M29.2351 496.982C34.5485 494.037 36.4683 487.342 33.523 482.028C30.5777 476.715 23.8827 474.795 18.5693 477.741C13.2559 480.686 11.3361 487.381 14.2814 492.694C17.2267 498.008 23.9217 499.927 29.2351 496.982Z" fill="#97CFFB"/>
<path d="M117.109 532.598L181.831 496.722L183.77 500.221L119.048 536.097L117.109 532.598Z" fill="white"/>
<path d="M104.737 413.385L99.7391 413.543L103.75 540.48L108.748 540.322L104.737 413.385Z" fill="white"/>
<path fill-rule="evenodd" clip-rule="evenodd" d="M109.459 422.385C115.739 418.904 118.007 410.992 114.527 404.712C111.046 398.433 103.134 396.164 96.8541 399.645C90.5746 403.126 88.3057 411.038 91.7865 417.317C95.2673 423.597 103.18 425.866 109.459 422.385Z" fill="#97CFFB"/>
<path fill-rule="evenodd" clip-rule="evenodd" d="M168.268 449.919C174.548 446.438 176.816 438.526 173.336 432.247C169.855 425.967 161.942 423.698 155.663 427.179C149.383 430.66 147.115 438.572 150.595 444.852C154.076 451.131 161.989 453.4 168.268 449.919Z" fill="#97CFFB"/>
<path fill-rule="evenodd" clip-rule="evenodd" d="M185.824 508.378C191.138 505.433 193.057 498.738 190.112 493.424C187.167 488.111 180.472 486.191 175.158 489.136C169.845 492.082 167.925 498.777 170.87 504.09C173.816 509.403 180.511 511.323 185.824 508.378Z" fill="#97CFFB"/>
<rect width="179.963" height="262.385" fill="black" fill-opacity="0" transform="translate(1961.68 5.41846) scale(-1 1) rotate(-3)"/>
<path d="M1934.42 266.735L1935.04 243.818L1949.42 239.247L1953.38 151.097L1892.16 117.173L1862.23 114.56L1838.95 71.6279L1792.54 54.5132L1790.52 58.3985L1835.1 74.8312L1858.8 118.533L1890.43 121.286L1948.14 153.259L1944.4 236.25L1929.98 240.835L1928.74 266.438L1934.42 266.735Z" fill="white"/>
<path d="M1942.52 156.468L1940.38 151.772L1900.03 182.355L1880.01 168.111L1845.03 191.191L1846.8 196.152L1878.9 174.977L1899.12 189.367L1942.52 156.468Z" fill="white"/>
<path fill-rule="evenodd" clip-rule="evenodd" d="M1842.83 206.415C1837.32 206.126 1833.08 201.422 1833.37 195.908C1833.66 190.394 1838.36 186.158 1843.88 186.447C1849.39 186.736 1853.63 191.44 1853.34 196.954C1853.05 202.469 1848.35 206.704 1842.83 206.415Z" fill="#7EC1F6"/>
<path d="M1902.16 124.479L1898.25 122.595L1918.08 88.9949L1904.84 71.8084L1919.33 42.631L1923.4 44.2172L1910.11 70.9953L1923.48 88.3559L1902.16 124.479Z" fill="white"/>
<path fill-rule="evenodd" clip-rule="evenodd" d="M1922.72 51.0248C1917.2 50.7358 1912.97 46.0314 1913.26 40.5172C1913.55 35.003 1918.25 30.7671 1923.77 31.0561C1929.28 31.3451 1933.52 36.0495 1933.23 41.5637C1932.94 47.0779 1928.23 51.3138 1922.72 51.0248Z" fill="#7EC1F6"/>
<path d="M1866.75 115.264L1799.58 111.744L1799.39 115.374L1866.56 118.894L1866.75 115.264Z" fill="white"/>
<path d="M1827.73 12.8149L1831.88 10.9527L1879.18 116.249L1875.03 118.111L1827.73 12.8149Z" fill="white"/>
<path fill-rule="evenodd" clip-rule="evenodd" d="M1827.26 22.4067C1820.64 22.0599 1815.55 16.4135 1815.9 9.79512C1816.25 3.17678 1821.89 -1.90726 1828.51 -1.5604C1835.13 -1.21355 1840.21 4.43285 1839.87 11.0512C1839.52 17.6695 1833.87 22.7536 1827.26 22.4067Z" fill="#7EC1F6"/>
<path fill-rule="evenodd" clip-rule="evenodd" d="M1790.18 68.3322C1783.57 67.9854 1778.48 62.339 1778.83 55.7207C1779.18 49.1023 1784.82 44.0183 1791.44 44.3651C1798.06 44.712 1803.14 50.3584 1802.8 56.9767C1802.45 63.5951 1796.8 68.6791 1790.18 68.3322Z" fill="#7EC1F6"/>
<path fill-rule="evenodd" clip-rule="evenodd" d="M1799.34 122.726C1793.82 122.437 1789.59 117.732 1789.88 112.218C1790.17 106.704 1794.87 102.468 1800.38 102.757C1805.9 103.046 1810.13 107.75 1809.85 113.265C1809.56 118.779 1804.85 123.015 1799.34 122.726Z" fill="#7EC1F6"/>
<rect width="197" height="206.971" fill="black" fill-opacity="0" transform="translate(3 200.322)"/>
<path opacity="0.3" d="M44.0544 393.091L33.7699 393.092L33.7696 403.376C33.7693 404.906 32.5298 406.145 30.9999 406.146C30.2355 406.146 29.5433 405.836 29.0425 405.335C28.5409 404.833 28.2307 404.141 28.2313 403.377L28.2311 393.091L17.9455 393.091C17.1812 393.091 16.4889 392.781 15.9877 392.28C15.4866 391.779 15.1768 391.087 15.1768 390.322C15.1767 388.793 16.4162 387.553 17.9465 387.553L28.2307 387.552L28.231 377.268C28.231 375.738 29.4707 374.498 31.0004 374.498C32.5294 374.499 33.7684 375.738 33.7691 377.267L33.7696 387.552L44.0547 387.552C45.5841 387.553 46.8233 388.792 46.8235 390.321C46.8238 391.851 45.5841 393.091 44.0544 393.091Z" fill="white"/>
<path opacity="0.2" fill-rule="evenodd" clip-rule="evenodd" d="M77 316.322C81.9706 316.322 86 312.293 86 307.322C86 302.351 81.9706 298.322 77 298.322C72.0294 298.322 68 302.351 68 307.322C68 312.293 72.0294 316.322 77 316.322Z" fill="white"/>
<path opacity="0.2" fill-rule="evenodd" clip-rule="evenodd" d="M193 343.322C196.866 343.322 200 340.188 200 336.322C200 332.456 196.866 329.322 193 329.322C189.134 329.322 186 332.456 186 336.322C186 340.188 189.134 343.322 193 343.322Z" fill="white"/>
<path opacity="0.15" fill-rule="evenodd" clip-rule="evenodd" d="M9 234.322C12.3137 234.322 15 231.636 15 228.322C15 225.008 12.3137 222.322 9 222.322C5.68629 222.322 3 225.008 3 228.322C3 231.636 5.68629 234.322 9 234.322Z" fill="white"/>
<path opacity="0.1" fill-rule="evenodd" clip-rule="evenodd" d="M165 210.322C167.761 210.322 170 208.083 170 205.322C170 202.561 167.761 200.322 165 200.322C162.239 200.322 160 202.561 160 205.322C160 208.083 162.239 210.322 165 210.322Z" fill="white"/>
<rect width="178" height="180.971" fill="black" fill-opacity="0" transform="translate(1720 279.351)"/>
<path opacity="0.1" d="M1893.05 299.091L1882.77 299.092L1882.77 309.376C1882.77 310.906 1881.53 312.145 1880 312.146C1879.24 312.146 1878.54 311.836 1878.04 311.335C1877.54 310.833 1877.23 310.141 1877.23 309.377L1877.23 299.091L1866.95 299.091C1866.18 299.091 1865.49 298.781 1864.99 298.28C1864.49 297.779 1864.18 297.087 1864.18 296.322C1864.18 294.793 1865.42 293.553 1866.95 293.553L1877.23 293.552L1877.23 283.268C1877.23 281.738 1878.47 280.498 1880 280.498C1881.53 280.499 1882.77 281.738 1882.77 283.267L1882.77 293.552L1893.05 293.552C1894.58 293.553 1895.82 294.792 1895.82 296.321C1895.82 297.851 1894.58 299.091 1893.05 299.091Z" fill="white"/>
<path opacity="0.1" fill-rule="evenodd" clip-rule="evenodd" d="M1805 370.322C1809.97 370.322 1814 366.293 1814 361.322C1814 356.351 1809.97 352.322 1805 352.322C1800.03 352.322 1796 356.351 1796 361.322C1796 366.293 1800.03 370.322 1805 370.322Z" fill="white"/>
<path opacity="0.15" fill-rule="evenodd" clip-rule="evenodd" d="M1891 408.322C1894.87 408.322 1898 405.188 1898 401.322C1898 397.456 1894.87 394.322 1891 394.322C1887.13 394.322 1884 397.456 1884 401.322C1884 405.188 1887.13 408.322 1891 408.322Z" fill="white"/>
<path opacity="0.2" fill-rule="evenodd" clip-rule="evenodd" d="M1726 424.322C1729.31 424.322 1732 421.636 1732 418.322C1732 415.008 1729.31 412.322 1726 412.322C1722.69 412.322 1720 415.008 1720 418.322C1720 421.636 1722.69 424.322 1726 424.322Z" fill="white"/>
<path opacity="0.2" fill-rule="evenodd" clip-rule="evenodd" d="M1836 460.322C1838.76 460.322 1841 458.083 1841 455.322C1841 452.561 1838.76 450.322 1836 450.322C1833.24 450.322 1831 452.561 1831 455.322C1831 458.083 1833.24 460.322 1836 460.322Z" fill="white"/>
</g>
<defs>
<linearGradient id="paint0_linear" x1="1919.72" y1="498.405" x2="1919.72" y2="651.117" gradientUnits="userSpaceOnUse">
<stop stop-color="#E3F2FE"/>
<stop offset="1" stop-color="#A6D9FF"/>
</linearGradient>
<linearGradient id="paint1_linear" x1="-0.107544" y1="491.944" x2="-0.107544" y2="710" gradientUnits="userSpaceOnUse">
<stop stop-color="#A4D9FF"/>
<stop offset="1" stop-color="#ECF7FF"/>
</linearGradient>
<linearGradient id="paint2_linear" x1="-0.219177" y1="0" x2="-0.219177" y2="713.911" gradientUnits="userSpaceOnUse">
<stop stop-color="#1991EB"/>
<stop offset="1" stop-color="#A6D9FF"/>
</linearGradient>
</defs>
</svg>
