<svg width="1800" height="5428" viewBox="0 0 1800 5428" fill="none" xmlns="http://www.w3.org/2000/svg">
<rect width="1790.96" height="5427.38" fill="black" fill-opacity="0" transform="translate(4)"/>
<path opacity="0.4" fill-rule="evenodd" clip-rule="evenodd" d="M1626.59 0L1678.55 30L1648.55 81.9615L1596.59 51.9615L1626.59 0Z" fill="#1A91EB"/>
<rect width="73" height="197.971" fill="black" fill-opacity="0" transform="translate(54 402.441)"/>
<path d="M116.054 422.181L105.77 422.181L105.77 432.465C105.769 433.995 104.53 435.235 103 435.235C102.236 435.235 101.543 434.925 101.042 434.425C100.541 433.923 100.231 433.231 100.231 432.467L100.231 422.181L89.9455 422.181C89.1812 422.181 88.4889 421.871 87.9877 421.37C87.4866 420.869 87.1768 420.177 87.1768 419.412C87.1767 417.882 88.4162 416.643 89.9465 416.642L100.231 416.642L100.231 406.357C100.231 404.827 101.471 403.588 103 403.588C104.529 403.588 105.768 404.827 105.769 406.356L105.77 416.642L116.055 416.642C117.584 416.643 118.823 417.882 118.824 419.411C118.824 420.941 117.584 422.181 116.054 422.181Z" fill="#1E94EB"/>
<path fill-rule="evenodd" clip-rule="evenodd" d="M63 491.412C67.9706 491.412 72 487.382 72 482.412C72 477.441 67.9706 473.412 63 473.412C58.0294 473.412 54 477.441 54 482.412C54 487.382 58.0294 491.412 63 491.412Z" fill="#B0D9F9"/>
<path fill-rule="evenodd" clip-rule="evenodd" d="M121 539.412C124.314 539.412 127 536.725 127 533.412C127 530.098 124.314 527.412 121 527.412C117.686 527.412 115 530.098 115 533.412C115 536.725 117.686 539.412 121 539.412Z" fill="#DBEDFA"/>
<path fill-rule="evenodd" clip-rule="evenodd" d="M85 600.412C88.3137 600.412 91 597.725 91 594.412C91 591.098 88.3137 588.412 85 588.412C81.6863 588.412 79 591.098 79 594.412C79 597.725 81.6863 600.412 85 600.412Z" fill="#E7F3FB"/>
<rect width="103.941" height="244.971" fill="black" fill-opacity="0" transform="translate(1627 824.412)"/>
<path d="M1650 844.412C1650 834.47 1658.06 826.412 1668 826.412C1677.94 826.412 1686 834.47 1686 844.412C1686 854.353 1677.94 862.412 1668 862.412C1658.06 862.412 1650 854.353 1650 844.412Z" stroke="#2D9CEE" stroke-width="4"/>
<path fill-rule="evenodd" clip-rule="evenodd" d="M1697 934.382L1713.97 917.412L1730.94 934.382L1713.97 951.353L1697 934.382Z" fill="#B0D9F9"/>
<path fill-rule="evenodd" clip-rule="evenodd" d="M1627 993.725L1638.31 982.412L1649.63 993.725L1638.31 1005.04L1627 993.725Z" fill="#DBEDFA"/>
<path opacity="0.8" fill-rule="evenodd" clip-rule="evenodd" d="M1706 1060.9L1714.49 1052.41L1722.97 1060.9L1714.49 1069.38L1706 1060.9Z" fill="#E1EFFA"/>
<path opacity="0.3" fill-rule="evenodd" clip-rule="evenodd" d="M222 1118.41C243.539 1118.41 261 1100.95 261 1079.41C261 1057.87 243.539 1040.41 222 1040.41C200.461 1040.41 183 1057.87 183 1079.41C183 1100.95 200.461 1118.41 222 1118.41Z" fill="#1A91EB"/>
<path fill-rule="evenodd" clip-rule="evenodd" d="M1724.8 1538.89L1777.61 1552.16L1781.48 1606.59L1731.05 1626.96L1696.02 1585.13L1724.8 1538.89Z" stroke="#1A91EB" stroke-width="4"/>
<path fill-rule="evenodd" clip-rule="evenodd" d="M18.3352 1525.02L21.2073 1490.41L49.8776 1510.49L18.3352 1525.02Z" stroke="#1A91EB" stroke-width="3"/>
<rect width="101.042" height="500.251" fill="black" fill-opacity="0" transform="translate(81.182 2075.13)"/>
<path d="M152 2077.96L177.456 2103.41L152 2128.87L126.544 2103.41L152 2077.96Z" fill="#2D9CEE" stroke="#2D9CEE" stroke-width="4"/>
<path d="M179.287 2441.97L171.573 2441.97L171.573 2449.68C171.573 2450.83 170.643 2451.76 169.496 2451.76C168.922 2451.76 168.403 2451.53 168.028 2451.15C167.651 2450.78 167.419 2450.26 167.419 2449.68L167.419 2441.97L159.705 2441.97C159.132 2441.97 158.612 2441.74 158.236 2441.36C157.861 2440.99 157.628 2440.47 157.628 2439.89C157.628 2438.75 158.558 2437.82 159.706 2437.82L167.419 2437.82L167.419 2430.1C167.419 2428.95 168.349 2428.02 169.496 2428.02C170.643 2428.03 171.572 2428.95 171.573 2430.1L171.573 2437.82L179.287 2437.82C180.434 2437.82 181.363 2438.75 181.363 2439.89C181.364 2441.04 180.434 2441.97 179.287 2441.97Z" fill="#B0D9F9"/>
<path d="M101.199 2501.74L94.3423 2501.74L94.3421 2508.6C94.3419 2509.62 93.5156 2510.44 92.4956 2510.44C91.9861 2510.44 91.5246 2510.24 91.1907 2509.9C90.8563 2509.57 90.6495 2509.11 90.6499 2508.6L90.6498 2501.74L83.7927 2501.74C83.2832 2501.74 82.8217 2501.53 82.4875 2501.2C82.1535 2500.86 81.9469 2500.4 81.9469 2499.89C81.9469 2498.87 82.7732 2498.05 83.7934 2498.05L90.6495 2498.05L90.6497 2491.19C90.6497 2490.17 91.4762 2489.34 92.496 2489.34C93.5153 2489.34 94.3413 2490.17 94.3418 2491.19L94.3421 2498.05L101.199 2498.05C102.218 2498.05 103.045 2498.87 103.045 2499.89C103.045 2500.91 102.218 2501.74 101.199 2501.74Z" fill="#DBEDFA"/>
<path d="M175.023 2568.28L169.881 2568.28L169.881 2573.42C169.88 2574.18 169.261 2574.8 168.496 2574.8C168.113 2574.8 167.767 2574.65 167.517 2574.4C167.266 2574.15 167.111 2573.8 167.111 2573.42L167.111 2568.28L161.968 2568.28C161.586 2568.28 161.24 2568.12 160.99 2567.87C160.739 2567.62 160.584 2567.28 160.584 2566.89C160.584 2566.13 161.204 2565.51 161.969 2565.51L167.111 2565.51L167.111 2560.37C167.111 2559.6 167.731 2558.98 168.496 2558.98C169.26 2558.98 169.88 2559.6 169.88 2560.37L169.881 2565.51L175.023 2565.51C175.788 2565.51 176.407 2566.13 176.407 2566.89C176.408 2567.66 175.788 2568.28 175.023 2568.28Z" fill="#E7F3FB"/>
<path fill-rule="evenodd" clip-rule="evenodd" d="M1704.21 3657.52L1742 3666.97L1744.73 3705.85L1708.63 3720.44L1683.59 3690.57L1704.21 3657.52Z" stroke="#1A91EB" stroke-width="4"/>
<rect width="1644.39" height="1632.97" fill="black" fill-opacity="0" transform="translate(23.182 3794.41)"/>
<path d="M1639.28 4171.24L1664.74 4196.7L1639.28 4222.15L1613.83 4196.7L1639.28 4171.24Z" fill="#2D9CEE" stroke="#2D9CEE" stroke-width="4"/>
<path fill-rule="evenodd" clip-rule="evenodd" d="M108.335 3829.02L111.207 3794.41L139.878 3814.49L108.335 3829.02Z" fill="#1A91EB"/>
<path d="M121.287 5293.97L113.573 5293.97L113.573 5301.68C113.573 5302.83 112.643 5303.76 111.496 5303.76C110.922 5303.76 110.403 5303.53 110.028 5303.15C109.651 5302.78 109.419 5302.26 109.419 5301.68L109.419 5293.97L101.705 5293.97C101.132 5293.97 100.612 5293.74 100.236 5293.36C99.8607 5292.99 99.6283 5292.47 99.6283 5291.89C99.6283 5290.75 100.558 5289.82 101.706 5289.82L109.419 5289.82L109.419 5282.1C109.419 5280.95 110.349 5280.02 111.496 5280.02C112.643 5280.03 113.572 5280.95 113.573 5282.1L113.573 5289.82L121.287 5289.82C122.434 5289.82 123.363 5290.75 123.363 5291.89C123.364 5293.04 122.434 5293.97 121.287 5293.97Z" fill="#B0D9F9"/>
<path d="M43.1987 5353.74L36.3423 5353.74L36.3421 5360.6C36.3419 5361.62 35.5156 5362.44 34.4956 5362.44C33.9861 5362.44 33.5246 5362.24 33.1907 5361.9C32.8563 5361.57 32.6495 5361.11 32.6499 5360.6L32.6498 5353.74L25.7927 5353.74C25.2832 5353.74 24.8217 5353.53 24.4875 5353.2C24.1535 5352.86 23.9469 5352.4 23.9469 5351.89C23.9469 5350.87 24.7732 5350.05 25.7934 5350.05L32.6495 5350.05L32.6497 5343.19C32.6497 5342.17 33.4762 5341.34 34.496 5341.34C35.5153 5341.34 36.3413 5342.17 36.3418 5343.19L36.3421 5350.05L43.1989 5350.05C44.2185 5350.05 45.0446 5350.87 45.0448 5351.89C45.045 5352.91 44.2185 5353.74 43.1987 5353.74Z" fill="#DBEDFA"/>
<path d="M117.023 5420.28L111.881 5420.28L111.881 5425.42C111.88 5426.18 111.261 5426.8 110.496 5426.8C110.113 5426.8 109.767 5426.65 109.517 5426.4C109.266 5426.15 109.111 5425.8 109.111 5425.42L109.111 5420.28L103.968 5420.28C103.586 5420.28 103.24 5420.12 102.99 5419.87C102.739 5419.62 102.584 5419.28 102.584 5418.89C102.584 5418.13 103.204 5417.51 103.969 5417.51L109.111 5417.51L109.111 5412.37C109.111 5411.6 109.731 5410.98 110.496 5410.98C111.26 5410.98 111.88 5411.6 111.88 5412.36L111.881 5417.51L117.023 5417.51C117.788 5417.51 118.407 5418.13 118.407 5418.89C118.408 5419.66 117.788 5420.28 117.023 5420.28Z" fill="#E7F3FB"/>
<rect width="103.941" height="244.971" fill="black" fill-opacity="0" transform="translate(1665 4739.41)"/>
<path d="M1688 4759.41C1688 4749.47 1696.06 4741.41 1706 4741.41C1715.94 4741.41 1724 4749.47 1724 4759.41C1724 4769.35 1715.94 4777.41 1706 4777.41C1696.06 4777.41 1688 4769.35 1688 4759.41Z" stroke="#2D9CEE" stroke-width="4"/>
<path fill-rule="evenodd" clip-rule="evenodd" d="M1735 4849.38L1751.97 4832.41L1768.94 4849.38L1751.97 4866.35L1735 4849.38Z" fill="#B0D9F9"/>
<path fill-rule="evenodd" clip-rule="evenodd" d="M1665 4908.73L1676.31 4897.41L1687.63 4908.73L1676.31 4920.04L1665 4908.73Z" fill="#DBEDFA"/>
<path opacity="0.8" fill-rule="evenodd" clip-rule="evenodd" d="M1744 4975.9L1752.49 4967.41L1760.97 4975.9L1752.49 4984.38L1744 4975.9Z" fill="#E1EFFA"/>
<path opacity="0.4" fill-rule="evenodd" clip-rule="evenodd" d="M48 4551.72L99.9615 4581.72L69.9615 4633.68L18 4603.68L48 4551.72Z" fill="#1A91EB"/>
</svg>
