<svg width="1920" height="844" viewBox="0 0 1920 844" fill="none" xmlns="http://www.w3.org/2000/svg">
<rect width="1990.58" height="843.798" fill="black" fill-opacity="0" transform="translate(-15.4207 0.200195)"/>
<path opacity="0.2" fill-rule="evenodd" clip-rule="evenodd" d="M1920 94.2002L0 330.2L1919.63 330.2L1920 94.2002Z" fill="url(#paint0_linear)"/>
<path fill-rule="evenodd" clip-rule="evenodd" d="M0 0.200195L1920 300.491V338.2H0.204347" fill="url(#paint1_linear)"/>
<path fill-rule="evenodd" clip-rule="evenodd" d="M1920 301.2L0 65.2002L0.365845 301.2H0V780.2H1920V301.2Z" fill="url(#paint2_linear)"/>
<rect width="153.148" height="223.289" fill="black" fill-opacity="0" transform="translate(1924.93 311.096) scale(-1 1) rotate(13)"/>
<path d="M1963.93 531.254L1959.06 512.361L1969.75 505.25L1952.32 432.211L1894.27 418.822L1869.18 423.703L1840.06 394.045L1798.08 390.931L1797.34 394.583L1837.66 397.569L1867.31 427.758L1893.83 422.591L1948.53 435.21L1964.94 503.975L1954.22 511.11L1959.21 532.343L1963.93 531.254Z" fill="white"/>
<path d="M1944.69 439.153L1941.84 435.812L1916 470.297L1896.28 463.339L1873.09 490.424L1875.7 494.067L1896.99 469.215L1916.91 476.245L1944.69 439.153Z" fill="white"/>
<path fill-rule="evenodd" clip-rule="evenodd" d="M1874.86 503.395C1870.28 504.452 1865.71 501.597 1864.65 497.018C1863.6 492.44 1866.45 487.871 1871.03 486.814C1875.61 485.757 1880.18 488.612 1881.23 493.19C1882.29 497.769 1879.44 502.338 1874.86 503.395Z" fill="#7EC1F6"/>
<path d="M1904.17 422.451L1900.53 421.828L1908.87 389.691L1894 378.738L1899.01 351.471L1902.72 351.813L1898.13 376.836L1913.14 387.901L1904.17 422.451Z" fill="white"/>
<path fill-rule="evenodd" clip-rule="evenodd" d="M1903.76 357.542C1899.18 358.599 1894.61 355.744 1893.55 351.165C1892.5 346.587 1895.35 342.018 1899.93 340.961C1904.51 339.904 1909.08 342.759 1910.13 347.337C1911.19 351.916 1908.34 356.485 1903.76 357.542Z" fill="#7EC1F6"/>
<path d="M1873.04 423.22L1817.27 436.096L1817.96 439.11L1873.74 426.234L1873.04 423.22Z" fill="white"/>
<path d="M1817.09 348.566L1820.05 346.07L1883.44 421.11L1880.48 423.606L1817.09 348.566Z" fill="white"/>
<path fill-rule="evenodd" clip-rule="evenodd" d="M1818.95 356.524C1813.46 357.792 1807.97 354.366 1806.71 348.871C1805.44 343.375 1808.86 337.892 1814.36 336.623C1819.85 335.354 1825.34 338.781 1826.61 344.276C1827.87 349.772 1824.45 355.255 1818.95 356.524Z" fill="#7EC1F6"/>
<path fill-rule="evenodd" clip-rule="evenodd" d="M1799.4 402.788C1793.9 404.057 1788.42 400.63 1787.15 395.135C1785.88 389.639 1789.31 384.156 1794.8 382.887C1800.3 381.619 1805.78 385.045 1807.05 390.54C1808.32 396.036 1804.89 401.519 1799.4 402.788Z" fill="#7EC1F6"/>
<path fill-rule="evenodd" clip-rule="evenodd" d="M1819.65 445.136C1815.07 446.193 1810.5 443.339 1809.44 438.76C1808.38 434.181 1811.24 429.613 1815.82 428.556C1820.4 427.499 1824.97 430.354 1826.02 434.932C1827.08 439.511 1824.22 444.079 1819.65 445.136Z" fill="#7EC1F6"/>
<rect width="163.046" height="234.568" fill="black" fill-opacity="0" transform="translate(-15.4207 640.856) rotate(-30)"/>
<path d="M99.8139 818.66L90.9963 802.459L79.021 804.434L43.983 742.69L75.483 696.008L95.9792 683.206L96.9882 643.926L124.007 614.705L126.874 616.752L100.921 644.814L99.8904 684.8L78.2217 698.327L48.5337 742.324L81.5228 800.452L93.5406 798.469L103.776 816.372L99.8139 818.66Z" fill="white"/>
<path d="M111.759 812.35L108.398 810.561L137.03 770.026L131.531 752.038L172.342 707.636L175.318 709.915L135.935 752.759L141.329 770.401L111.759 812.35Z" fill="white"/>
<path d="M139.705 771.381L139 767.457L174.704 764.041L180.334 744.904L209.871 739.912L210.893 743.8L183.787 748.385L178.101 767.718L139.705 771.381Z" fill="white"/>
<path fill-rule="evenodd" clip-rule="evenodd" d="M223.869 749.226C228.652 746.465 230.291 740.349 227.53 735.566C224.768 730.783 218.652 729.144 213.869 731.906C209.086 734.667 207.448 740.783 210.209 745.566C212.97 750.349 219.086 751.987 223.869 749.226Z" fill="#61B4F3"/>
<path fill-rule="evenodd" clip-rule="evenodd" d="M180.533 716.203C185.316 713.441 186.955 707.326 184.193 702.543C181.432 697.76 175.316 696.121 170.533 698.882C165.75 701.644 164.111 707.76 166.873 712.543C169.634 717.326 175.75 718.964 180.533 716.203Z" fill="#61B4F3"/>
<path d="M70.9788 704.9L73.0947 702.121L46.6102 685.276L49.8227 668.121L28.7794 652.497L26.4385 655.122L45.7475 669.463L42.5016 686.793L70.9788 704.9Z" fill="white"/>
<path fill-rule="evenodd" clip-rule="evenodd" d="M29.3315 659.699C33.1578 657.49 34.4688 652.597 32.2597 648.771C30.0505 644.944 25.1578 643.633 21.3315 645.843C17.5051 648.052 16.1941 652.944 18.4033 656.771C20.6124 660.597 25.5051 661.908 29.3315 659.699Z" fill="#61B4F3"/>
<path d="M94.1167 684.672L140.98 657.615L142.443 660.148L95.5792 687.205L94.1167 684.672Z" fill="white"/>
<path d="M83.5492 597.667L79.8973 597.846L84.4502 690.605L88.1021 690.426L83.5492 597.667Z" fill="white"/>
<path fill-rule="evenodd" clip-rule="evenodd" d="M87.038 604.795C91.8209 602.034 93.4597 595.918 90.6983 591.135C87.9368 586.352 81.8209 584.713 77.038 587.475C72.2551 590.236 70.6163 596.352 73.3777 601.135C76.1392 605.918 82.2551 607.557 87.038 604.795Z" fill="#61B4F3"/>
<path fill-rule="evenodd" clip-rule="evenodd" d="M131.387 624.177C136.17 621.415 137.809 615.299 135.048 610.516C132.286 605.734 126.17 604.095 121.387 606.856C116.605 609.618 114.966 615.734 117.727 620.516C120.489 625.299 126.605 626.938 131.387 624.177Z" fill="#61B4F3"/>
<path fill-rule="evenodd" clip-rule="evenodd" d="M143.967 666.032C147.793 663.823 149.104 658.931 146.895 655.104C144.686 651.278 139.793 649.967 135.967 652.176C132.14 654.385 130.829 659.278 133.039 663.104C135.248 666.931 140.14 668.242 143.967 666.032Z" fill="#61B4F3"/>
<defs>
<linearGradient id="paint0_linear" x1="1920" y1="330.2" x2="1920" y2="94.2002" gradientUnits="userSpaceOnUse">
<stop stop-color="#E3F2FE"/>
<stop offset="1" stop-color="#A6D9FF"/>
</linearGradient>
<linearGradient id="paint1_linear" x1="0" y1="338.2" x2="0" y2="0.200195" gradientUnits="userSpaceOnUse">
<stop stop-color="#A4D9FF"/>
<stop offset="1" stop-color="#ECF7FF"/>
</linearGradient>
<linearGradient id="paint2_linear" x1="0" y1="780.2" x2="0" y2="65.2002" gradientUnits="userSpaceOnUse">
<stop stop-color="#1B92EB"/>
<stop offset="1" stop-color="#6FBDF7"/>
</linearGradient>
</defs>
</svg>
