<svg width="1920" height="1451" viewBox="0 0 1920 1451" fill="none" xmlns="http://www.w3.org/2000/svg">
<rect width="1921.22" height="1450" fill="black" fill-opacity="0" transform="translate(-1 0.199951)"/>
<path opacity="0.2" fill-rule="evenodd" clip-rule="evenodd" d="M-1 82.2L1919.62 318.912L-0.634063 318.912L-1 82.2Z" fill="url(#paint0_linear)"/>
<path fill-rule="evenodd" clip-rule="evenodd" d="M1919.98 0.199982L0 301.159V338.952H1919.78" fill="url(#paint1_linear)"/>
<path fill-rule="evenodd" clip-rule="evenodd" d="M1920.11 1450.2L0.111694 1149.91V1112.2L1919.91 1112.2" fill="url(#paint2_linear)"/>
<path opacity="0.2" fill-rule="evenodd" clip-rule="evenodd" d="M-0.780762 1374.93L1919.83 1138.22L-0.414825 1138.22L-0.780762 1374.93Z" fill="url(#paint3_linear)"/>
<path fill-rule="evenodd" clip-rule="evenodd" d="M1920 65.2L0 301.2V1149.5H2.68536L1920.22 1385.2L1919.85 1149.5H1920V301.2H1919.63L1920 65.2Z" fill="url(#paint4_linear)"/>
<mask id="mask0" mask-type="alpha" maskUnits="userSpaceOnUse" x="0" y="65" width="1921" height="1321">
<path fill-rule="evenodd" clip-rule="evenodd" d="M1920 65.2L0 301.2V1149.5H2.68536L1920.22 1385.2L1919.85 1149.5H1920V301.2H1919.63L1920 65.2Z" fill="white"/>
</mask>
<g mask="url(#mask0)">
<rect width="197" height="206.971" fill="black" fill-opacity="0" transform="translate(1679 144.2)"/>
<path opacity="0.3" d="M1720.05 336.969L1709.77 336.97L1709.77 347.254C1709.77 348.784 1708.53 350.023 1707 350.024C1706.24 350.024 1705.54 349.714 1705.04 349.213C1704.54 348.711 1704.23 348.019 1704.23 347.255L1704.23 336.969L1693.95 336.969C1693.18 336.969 1692.49 336.659 1691.99 336.158C1691.49 335.657 1691.18 334.965 1691.18 334.2C1691.18 332.671 1692.42 331.431 1693.95 331.431L1704.23 331.43L1704.23 321.146C1704.23 319.616 1705.47 318.376 1707 318.376C1708.53 318.377 1709.77 319.616 1709.77 321.145L1709.77 331.43L1720.05 331.43C1721.58 331.431 1722.82 332.67 1722.82 334.199C1722.82 335.729 1721.58 336.969 1720.05 336.969Z" fill="white"/>
<path opacity="0.2" fill-rule="evenodd" clip-rule="evenodd" d="M1753 260.2C1757.97 260.2 1762 256.171 1762 251.2C1762 246.229 1757.97 242.2 1753 242.2C1748.03 242.2 1744 246.229 1744 251.2C1744 256.171 1748.03 260.2 1753 260.2Z" fill="white"/>
<path opacity="0.2" fill-rule="evenodd" clip-rule="evenodd" d="M1869 287.2C1872.87 287.2 1876 284.066 1876 280.2C1876 276.334 1872.87 273.2 1869 273.2C1865.13 273.2 1862 276.334 1862 280.2C1862 284.066 1865.13 287.2 1869 287.2Z" fill="white"/>
<path opacity="0.15" fill-rule="evenodd" clip-rule="evenodd" d="M1685 178.2C1688.31 178.2 1691 175.514 1691 172.2C1691 168.886 1688.31 166.2 1685 166.2C1681.69 166.2 1679 168.886 1679 172.2C1679 175.514 1681.69 178.2 1685 178.2Z" fill="white"/>
<path opacity="0.1" fill-rule="evenodd" clip-rule="evenodd" d="M1841 154.2C1843.76 154.2 1846 151.961 1846 149.2C1846 146.439 1843.76 144.2 1841 144.2C1838.24 144.2 1836 146.439 1836 149.2C1836 151.961 1838.24 154.2 1841 154.2Z" fill="white"/>
<rect width="232.874" height="347.201" fill="black" fill-opacity="0" transform="translate(1953.45 1102.04) scale(-1 1) rotate(-20)"/>
<path d="M1831.17 1390.76L1839.88 1364.83L1857.88 1364.63L1893.16 1265.41L1835.12 1205.33L1801.88 1191.9L1790.29 1134.78L1743.3 1099.06L1739.64 1102.79L1784.78 1137.1L1796.58 1195.24L1831.72 1209.42L1886.42 1266.04L1853.2 1359.45L1835.14 1359.65L1824.8 1388.44L1831.17 1390.76Z" fill="white"/>
<path d="M1812.1 1384.62L1816.55 1381.14L1764.28 1329.31L1767.68 1301.61L1696.63 1247.26L1692.87 1251.36L1761.43 1303.8L1758.1 1330.96L1812.1 1384.62Z" fill="white"/>
<path d="M1760.72 1331.97L1760.74 1326.06L1707.71 1330.27L1694.55 1303.76L1650.12 1304.08L1649.63 1310.02L1690.4 1309.74L1703.69 1336.51L1760.72 1331.97Z" fill="white"/>
<path fill-rule="evenodd" clip-rule="evenodd" d="M1639.85 1317.88C1633.62 1315.61 1630.41 1308.73 1632.68 1302.5C1634.94 1296.27 1641.83 1293.06 1648.06 1295.33C1654.28 1297.59 1657.49 1304.48 1655.23 1310.71C1652.96 1316.93 1646.08 1320.14 1639.85 1317.88Z" fill="#55AEF0"/>
<path fill-rule="evenodd" clip-rule="evenodd" d="M1688.22 1260.6C1680.95 1257.96 1677.21 1249.93 1679.85 1242.66C1682.5 1235.4 1690.53 1231.65 1697.8 1234.29C1705.06 1236.94 1708.81 1244.97 1706.16 1252.24C1703.52 1259.5 1695.49 1263.25 1688.22 1260.6Z" fill="#55AEF0"/>
<path d="M1843.99 1217.16L1840.19 1213.64L1874.54 1182.21L1865.42 1157.98L1892.14 1129.74L1896.23 1132.97L1871.72 1158.89L1880.93 1183.37L1843.99 1217.16Z" fill="white"/>
<path fill-rule="evenodd" clip-rule="evenodd" d="M1892.97 1140.6C1886.74 1138.34 1883.53 1131.45 1885.8 1125.22C1888.07 1119 1894.95 1115.78 1901.18 1118.05C1907.41 1120.32 1910.62 1127.2 1908.35 1133.43C1906.08 1139.66 1899.2 1142.87 1892.97 1140.6Z" fill="#55AEF0"/>
<path d="M1804.98 1193.57L1729.56 1166.11L1728.07 1170.19L1803.5 1197.64L1804.98 1193.57Z" fill="white"/>
<path d="M1798.01 1063.75L1803.39 1063.07L1820.63 1199.74L1815.25 1200.42L1798.01 1063.75Z" fill="white"/>
<path fill-rule="evenodd" clip-rule="evenodd" d="M1794.64 1074.04C1787.37 1071.39 1783.63 1063.36 1786.27 1056.09C1788.92 1048.83 1796.95 1045.08 1804.22 1047.73C1811.48 1050.37 1815.23 1058.4 1812.58 1065.67C1809.94 1072.93 1801.91 1076.68 1794.64 1074.04Z" fill="#55AEF0"/>
<path fill-rule="evenodd" clip-rule="evenodd" d="M1736.31 1113.51C1729.04 1110.87 1725.3 1102.84 1727.94 1095.57C1730.59 1088.3 1738.62 1084.56 1745.88 1087.2C1753.15 1089.85 1756.9 1097.88 1754.25 1105.15C1751.61 1112.41 1743.57 1116.16 1736.31 1113.51Z" fill="#55AEF0"/>
<path fill-rule="evenodd" clip-rule="evenodd" d="M1727.14 1179.38C1720.92 1177.12 1717.71 1170.23 1719.97 1164C1722.24 1157.77 1729.12 1154.56 1735.35 1156.83C1741.58 1159.1 1744.79 1165.98 1742.52 1172.21C1740.26 1178.44 1733.37 1181.65 1727.14 1179.38Z" fill="#55AEF0"/>
<rect width="179.196" height="261.093" fill="black" fill-opacity="0" transform="translate(-3.4259 379.603) rotate(14)"/>
<path d="M-53.5162 636.2L-47.4422 614.211L-59.793 605.679L-37.9181 520.642L30.2152 506.173L59.4501 512.393L94.0962 478.312L143.24 475.528L144.032 479.813L96.8313 482.482L61.5601 517.172L30.6598 510.589L-33.5546 524.226L-54.1466 604.286L-41.7505 612.847L-48.0262 637.569L-53.5162 636.2Z" fill="white"/>
<path d="M-29.1403 528.915L-25.744 525.067L3.76264 565.911L26.9542 558.179L53.5237 590.318L50.3955 594.524L26.009 565.035L2.58211 572.847L-29.1403 528.915Z" fill="white"/>
<path fill-rule="evenodd" clip-rule="evenodd" d="M51.2131 605.558C56.5719 606.894 61.9992 603.633 63.3353 598.274C64.6714 592.915 61.4103 587.488 56.0515 586.152C50.6927 584.816 45.2655 588.077 43.9294 593.436C42.5933 598.795 45.8543 604.222 51.2131 605.558Z" fill="#70C1FC"/>
<path d="M18.5683 510.214L22.8381 509.56L13.7479 471.818L31.3456 459.315L26.0471 427.335L21.7089 427.659L26.5667 457.008L8.78958 469.638L18.5683 510.214Z" fill="white"/>
<path fill-rule="evenodd" clip-rule="evenodd" d="M20.4016 434.447C25.7604 435.783 31.1876 432.522 32.5237 427.163C33.8598 421.804 30.5988 416.377 25.24 415.041C19.8812 413.705 14.4539 416.966 13.1178 422.325C11.7817 427.684 15.0428 433.111 20.4016 434.447Z" fill="#70C1FC"/>
<path d="M54.9493 511.749L119.89 527.94L119.015 531.45L54.0741 515.259L54.9493 511.749Z" fill="white"/>
<path d="M121.883 425.61L118.48 422.632L42.8357 509.07L46.2388 512.048L121.883 425.61Z" fill="white"/>
<path fill-rule="evenodd" clip-rule="evenodd" d="M119.574 435.005C126.004 436.608 132.517 432.695 134.12 426.264C135.724 419.834 131.81 413.321 125.38 411.718C118.949 410.114 112.436 414.028 110.833 420.458C109.23 426.889 113.143 433.401 119.574 435.005Z" fill="#70C1FC"/>
<path fill-rule="evenodd" clip-rule="evenodd" d="M141.49 489.493C147.92 491.096 154.433 487.183 156.036 480.752C157.64 474.322 153.726 467.809 147.296 466.206C140.865 464.602 134.353 468.516 132.749 474.946C131.146 481.377 135.059 487.889 141.49 489.493Z" fill="#70C1FC"/>
<path fill-rule="evenodd" clip-rule="evenodd" d="M116.951 538.573C122.309 539.909 127.737 536.648 129.073 531.289C130.409 525.931 127.148 520.503 121.789 519.167C116.43 517.831 111.003 521.092 109.667 526.451C108.331 531.81 111.592 537.237 116.951 538.573Z" fill="#70C1FC"/>
</g>
<defs>
<linearGradient id="paint0_linear" x1="-1" y1="318.912" x2="-1" y2="82.2" gradientUnits="userSpaceOnUse">
<stop stop-color="#E3F2FE"/>
<stop offset="1" stop-color="#A6D9FF"/>
</linearGradient>
<linearGradient id="paint1_linear" x1="1919.98" y1="338.952" x2="1919.98" y2="0.199982" gradientUnits="userSpaceOnUse">
<stop stop-color="#A4D9FF"/>
<stop offset="1" stop-color="#ECF7FF"/>
</linearGradient>
<linearGradient id="paint2_linear" x1="1920.11" y1="1112.2" x2="1920.11" y2="1450.2" gradientUnits="userSpaceOnUse">
<stop stop-color="#A4D9FF"/>
<stop offset="1" stop-color="#ECF7FF"/>
</linearGradient>
<linearGradient id="paint3_linear" x1="-0.780762" y1="1138.22" x2="-0.780762" y2="1374.93" gradientUnits="userSpaceOnUse">
<stop stop-color="#E3F2FE"/>
<stop offset="1" stop-color="#A6D9FF"/>
</linearGradient>
<linearGradient id="paint4_linear" x1="0" y1="1385.2" x2="0" y2="65.2" gradientUnits="userSpaceOnUse">
<stop stop-color="#1B92EB"/>
<stop offset="1" stop-color="#6FBDF7"/>
</linearGradient>
</defs>
</svg>
